<svg width="36" height="36" viewBox="0 0 36 36" fill="none" xmlns="http://www.w3.org/2000/svg">
<path d="M26.2551 0H9.74485C4.37145 0 0 4.37145 0 9.74485V26.2554C0 31.6285 4.37145 35.9999 9.74485 35.9999H26.2554C31.6285 35.9999 35.9999 31.6285 35.9999 26.2554V9.74485C35.9999 4.37145 31.6285 0 26.2551 0V0ZM33.8895 26.2554C33.8895 30.4648 30.4648 33.8895 26.2551 33.8895H9.74485C5.53518 33.8895 2.11047 30.4648 2.11047 26.2554V9.74485C2.11047 5.53518 5.53518 2.11047 9.74485 2.11047H26.2554C30.4648 2.11047 33.8895 5.53518 33.8895 9.74485V26.2554Z" fill="#333333"/>
</svg>
